/* XPM */
static char * empire_xpm[] = {
"22 22 2 1",
" 	g None",
".	g #FFFFFF",
"        ......        ",
"      ..  ..  ..      ",
"    ..   ....   ..    ",
"   .   ........   .   ",
"  .. ............ ..  ",
"  ........  ........  ",
" .........  ......... ",
" .... ....  .... .... ",
". ...   .    .   ... .",
".  ....        ....  .",
".  .....      .....  .",
".  .....      .....  .",
".  ....        ....  .",
". ...   .    .   ... .",
" .... ....  .... .... ",
" .........  ......... ",
"  ........  ........  ",
"  .. ............ ..  ",
"   .   ........   .   ",
"    ..   ....   ..    ",
"      ..  ..  ..      ",
"        ......        "};
